<svg t="1629701693919" class="icon" viewBox="0 0 1024 1024" version="1.1" xmlns="http://www.w3.org/2000/svg" p-id="2694" width="128" height="128"><path d="M815.217778 879.198815c28.766815 0 51.446519 32.104296 51.996444 71.111111 0 38.987852-23.22963 71.111111-51.427555 71.111111H198.049185c-28.197926 0-51.427556-32.123259-51.427555-71.111111 0-39.006815 23.22963-71.111111 51.427555-71.111111H815.217778zM1013.05837 711.111111c0 38.987852-32.692148 71.111111-72.362666 71.111111H72.362667C32.673185 782.222222 0 750.098963 0 711.111111V71.111111C0 32.123259 32.673185 0 72.362667 0h869.110518c39.670519 0 72.362667 32.123259 72.362667 71.111111V711.111111h-0.777482zM284.444444 151.703704a37.925926 37.925926 0 0 0-37.925925 37.925926v398.222222a37.925926 37.925926 0 0 0 37.925925 37.925926h37.925926a37.925926 37.925926 0 0 0 37.925926-37.925926V189.62963a37.925926 37.925926 0 0 0-37.925926-37.925926h-37.925926z m227.555556 0a37.925926 37.925926 0 0 0-37.925926 37.925926v398.222222a37.925926 37.925926 0 0 0 37.925926 37.925926h37.925926a37.925926 37.925926 0 0 0 37.925926-37.925926V189.62963a37.925926 37.925926 0 0 0-37.925926-37.925926h-37.925926z m227.555556 132.74074a37.925926 37.925926 0 0 0-37.925926 37.925926v265.481482a37.925926 37.925926 0 0 0 37.925926 37.925926h37.925925a37.925926 37.925926 0 0 0 37.925926-37.925926V322.37037a37.925926 37.925926 0 0 0-37.925926-37.925926h-37.925925z" p-id="2695"></path></svg>